<!-- Generated by IcoMoon.io -->
<svg version="1.1" xmlns="http://www.w3.org/2000/svg" width="32" height="32" viewBox="0 0 32 32">
<path d="M23.987 2.128c-1.345-0.143-2.697-0.212-4.049-0.208-4.484 0-7.271 2.856-7.271 7.453v3.121h-3.767c-0.177 0-0.346 0.070-0.471 0.195s-0.195 0.295-0.195 0.471v5.133c0 0.177 0.070 0.346 0.195 0.471s0.295 0.195 0.471 0.195h3.767v10.293c0 0.177 0.070 0.346 0.195 0.471s0.295 0.195 0.471 0.195h5.304c0.177 0 0.346-0.070 0.471-0.195s0.195-0.295 0.195-0.471v-10.293h3.755c0.162 0 0.318-0.059 0.44-0.165s0.2-0.254 0.221-0.415l0.663-5.133c0.012-0.094 0.005-0.19-0.023-0.28s-0.074-0.175-0.137-0.246c-0.063-0.071-0.14-0.128-0.226-0.168s-0.18-0.059-0.275-0.059h-4.417v-2.612c0-1.293 0.26-1.833 1.877-1.833h2.719c0.177 0 0.346-0.070 0.471-0.195s0.195-0.295 0.195-0.471v-4.593c0-0.162-0.059-0.318-0.165-0.44s-0.254-0.2-0.415-0.221zM23.233 6.715l-2.053 0.001c-2.876 0-3.209 1.808-3.209 3.167v3.28c0 0.177 0.070 0.346 0.195 0.471s0.294 0.195 0.471 0.196h4.328l-0.492 3.8h-3.835c-0.177 0-0.346 0.070-0.471 0.195s-0.195 0.295-0.195 0.471v10.291h-3.971v-10.291c0-0.177-0.070-0.346-0.195-0.471s-0.295-0.195-0.471-0.195h-3.765v-3.8h3.765c0.177 0 0.346-0.070 0.471-0.195s0.195-0.295 0.195-0.471v-3.789c0-3.832 2.22-6.12 5.937-6.12 1.345 0 2.56 0.073 3.296 0.137v3.324z"></path>
</svg>
